<?xml version="1.0" encoding="utf-8"?>
<!-- Generator: Adobe Illustrator 23.0.1, SVG Export Plug-In . SVG Version: 6.00 Build 0)  -->
<svg version="1.1" id="Layer_1" xmlns="http://www.w3.org/2000/svg" xmlns:xlink="http://www.w3.org/1999/xlink" x="0px" y="0px"
	 viewBox="0 0 309 159.4" style="enable-background:new 0 0 309 159.4;" xml:space="preserve">
<style type="text/css">
	.st0{fill:url(#SVGID_1_);}
	.st1{fill:url(#SVGID_2_);}
</style>
<linearGradient id="SVGID_1_" gradientUnits="userSpaceOnUse" x1="154.5101" y1="8.8555" x2="154.5101" y2="149.9675" gradientTransform="matrix(1 0 0 -1 0 159.1007)">
	<stop  offset="0" style="stop-color:#3C1F0D"/>
	<stop  offset="1" style="stop-color:#A87C4F"/>
</linearGradient>
<path class="st0" d="M285.7,90c-22.7,32.3-64.6,46.7-105.9,37.5c23.9-15.6,40-36.9,44.3-59.8c3.3-17.3-0.8-33.3-11.1-43.9
	c-20.7-21.2-48.2-14.3-58.5-10.7C144.3,9.5,116.7,2.6,96,23.9C85.7,34.5,81.6,50.5,84.9,67.7c4.3,22.9,20.4,44.2,44.3,59.8
	C87.9,136.7,46,122.3,23.3,90c-2.9-4.2-8.6-5.3-13-2.7l0,0c-4.9,2.9-6.3,9.4-3,14.2c21.9,31.4,58.4,48.8,97.3,48.8
	c16.5,0,33.4-3.2,49.9-9.8c16.4,6.6,33.4,9.8,49.9,9.8c38.9,0,75.5-17.5,97.3-48.8c3.3-4.7,1.9-11.2-3-14.2l0,0
	C294.3,84.6,288.6,85.8,285.7,90z"/>
<linearGradient id="SVGID_2_" gradientUnits="userSpaceOnUse" x1="154.5222" y1="38.0955" x2="154.5222" y2="132.1726" gradientTransform="matrix(1 0 0 -1 0 159.1007)">
	<stop  offset="0" style="stop-color:#FF6400"/>
	<stop  offset="1" style="stop-color:#FFC800"/>
</linearGradient>
<path class="st1" d="M103.6,63.4c-2-11.1,0-21.1,5.8-27.2c18-18.7,45.2-3.4,45.2-3.4s27.1-15.4,45.2,3.3c5.8,6,7.9,16,5.8,27.2
	c-4.2,22.7-23.1,44-51,57.6C126.7,107.4,107.7,86.1,103.6,63.4z"/>
</svg>
